<mxfile host="app.diagrams.net" modified="2023-09-17T20:27:15.439Z" agent="Mozilla/5.0 (Windows NT 10.0; Win64; x64; rv:109.0) Gecko/20100101 Firefox/117.0" etag="_5J_95ojJaWRM5GELwZ5" version="21.7.5" type="device">
  <diagram id="C5RBs43oDa-KdzZeNtuy" name="Page-1">
    <mxGraphModel dx="1500" dy="1938" grid="1" gridSize="10" guides="1" tooltips="1" connect="1" arrows="1" fold="1" page="1" pageScale="1" pageWidth="827" pageHeight="1169" background="none" math="0" shadow="0">
      <root>
        <mxCell id="WIyWlLk6GJQsqaUBKTNV-0" />
        <mxCell id="WIyWlLk6GJQsqaUBKTNV-1" parent="WIyWlLk6GJQsqaUBKTNV-0" />
        <mxCell id="5pXr0R31rmwVF_x6JBgt-3" value="" style="edgeStyle=orthogonalEdgeStyle;rounded=0;orthogonalLoop=1;jettySize=auto;html=1;fillColor=#dae8fc;strokeColor=#6c8ebf;" parent="WIyWlLk6GJQsqaUBKTNV-1" source="5pXr0R31rmwVF_x6JBgt-1" target="5pXr0R31rmwVF_x6JBgt-2" edge="1">
          <mxGeometry relative="1" as="geometry" />
        </mxCell>
        <mxCell id="5pXr0R31rmwVF_x6JBgt-1" value="I" style="ellipse;whiteSpace=wrap;html=1;fillColor=#dae8fc;strokeColor=#6c8ebf;" parent="WIyWlLk6GJQsqaUBKTNV-1" vertex="1">
          <mxGeometry x="362.5" y="-27" width="35" height="30" as="geometry" />
        </mxCell>
        <mxCell id="5gnvTc-YlHs9Nw9wisjp-1" value="" style="edgeStyle=orthogonalEdgeStyle;rounded=0;orthogonalLoop=1;jettySize=auto;html=1;fillColor=#dae8fc;strokeColor=#6c8ebf;" parent="WIyWlLk6GJQsqaUBKTNV-1" source="5pXr0R31rmwVF_x6JBgt-2" edge="1">
          <mxGeometry relative="1" as="geometry">
            <mxPoint x="380" y="63" as="targetPoint" />
          </mxGeometry>
        </mxCell>
        <mxCell id="5pXr0R31rmwVF_x6JBgt-2" value="LegajoAlumno,CodigoCarrera,CodigoMateria,Modalidad,Horario" style="shape=trapezoid;perimeter=trapezoidPerimeter;whiteSpace=wrap;html=1;fixedSize=1;direction=west;fillColor=#dae8fc;strokeColor=#6c8ebf;" parent="WIyWlLk6GJQsqaUBKTNV-1" vertex="1">
          <mxGeometry x="110" y="21" width="540" height="30" as="geometry" />
        </mxCell>
        <mxCell id="KSVmQtY1M76giZMWFQWg-30" style="edgeStyle=orthogonalEdgeStyle;rounded=0;orthogonalLoop=1;jettySize=auto;html=1;exitX=0.5;exitY=1;exitDx=0;exitDy=0;exitPerimeter=0;entryX=0.5;entryY=0;entryDx=0;entryDy=0;endArrow=none;endFill=0;fillColor=#dae8fc;strokeColor=#6c8ebf;" parent="WIyWlLk6GJQsqaUBKTNV-1" target="5gnvTc-YlHs9Nw9wisjp-29" edge="1">
          <mxGeometry relative="1" as="geometry">
            <mxPoint x="371.86000000000024" y="1850" as="sourcePoint" />
          </mxGeometry>
        </mxCell>
        <mxCell id="5pXr0R31rmwVF_x6JBgt-4" value="legajoAlumno != 0" style="swimlane;whiteSpace=wrap;html=1;fillColor=#dae8fc;strokeColor=#6c8ebf;startSize=20;points=[[0,0,0,0,0],[0,0.25,0,0,0],[0,0.5,0,0,0],[0,0.75,0,0,0],[0,1,0,0,0],[0.25,0,0,0,0],[0.25,1,0,0,0],[0.5,0,0,0,0],[0.5,1,0,0,0],[0.75,0,0,0,0],[0.75,1,0,0,0],[1,0,0,0,0],[1,0.25,0,0,0],[1,0.5,0,0,0],[1,0.75,0,0,0],[1,1,0,0,0]];" parent="WIyWlLk6GJQsqaUBKTNV-1" vertex="1">
          <mxGeometry x="29.99" y="140" width="728.01" height="1710" as="geometry" />
        </mxCell>
        <mxCell id="kTfVB5gQmg0WQEh0IqgH-29" style="edgeStyle=orthogonalEdgeStyle;shape=connector;rounded=0;orthogonalLoop=1;jettySize=auto;html=1;exitX=0.5;exitY=1;exitDx=0;exitDy=0;labelBackgroundColor=default;strokeColor=#b85450;fontFamily=Helvetica;fontSize=11;fontColor=default;endArrow=none;endFill=0;fillColor=#f8cecc;" edge="1" parent="5pXr0R31rmwVF_x6JBgt-4" source="kTfVB5gQmg0WQEh0IqgH-15">
          <mxGeometry relative="1" as="geometry">
            <mxPoint x="570.01" y="1220" as="targetPoint" />
            <Array as="points">
              <mxPoint x="171" y="1237" />
              <mxPoint x="570" y="1237" />
            </Array>
          </mxGeometry>
        </mxCell>
        <mxCell id="5pXr0R31rmwVF_x6JBgt-6" value="&lt;div&gt;CodigoActualCarrera==CodigoCarrera &amp;amp;&amp;amp;&amp;nbsp;&lt;span style=&quot;background-color: initial;&quot;&gt;LegajoAlumno != 0&lt;/span&gt;&lt;/div&gt;" style="swimlane;whiteSpace=wrap;html=1;startSize=23;fillColor=#dae8fc;strokeColor=#6c8ebf;" parent="5pXr0R31rmwVF_x6JBgt-4" vertex="1">
          <mxGeometry x="40" y="209" width="610" height="721" as="geometry" />
        </mxCell>
        <mxCell id="5pXr0R31rmwVF_x6JBgt-17" style="edgeStyle=orthogonalEdgeStyle;rounded=0;orthogonalLoop=1;jettySize=auto;html=1;exitX=1;exitY=0.5;exitDx=0;exitDy=0;entryX=0.5;entryY=0;entryDx=0;entryDy=0;endArrow=none;endFill=0;fillColor=#dae8fc;strokeColor=#6c8ebf;" parent="5pXr0R31rmwVF_x6JBgt-6" source="5pXr0R31rmwVF_x6JBgt-12" target="5pXr0R31rmwVF_x6JBgt-14" edge="1">
          <mxGeometry relative="1" as="geometry" />
        </mxCell>
        <mxCell id="yonmYlfciaBzX_8r0v4c-3" style="edgeStyle=orthogonalEdgeStyle;rounded=0;orthogonalLoop=1;jettySize=auto;html=1;exitX=0;exitY=0.5;exitDx=0;exitDy=0;entryX=0.5;entryY=1;entryDx=0;entryDy=0;fillColor=#dae8fc;strokeColor=#6c8ebf;" parent="5pXr0R31rmwVF_x6JBgt-6" source="5pXr0R31rmwVF_x6JBgt-12" target="5pXr0R31rmwVF_x6JBgt-14" edge="1">
          <mxGeometry relative="1" as="geometry" />
        </mxCell>
        <mxCell id="5pXr0R31rmwVF_x6JBgt-12" value="LegajoAlumno != 0" style="rhombus;whiteSpace=wrap;html=1;fillColor=#dae8fc;strokeColor=#6c8ebf;" parent="5pXr0R31rmwVF_x6JBgt-6" vertex="1">
          <mxGeometry x="262" y="580" width="110" height="80" as="geometry" />
        </mxCell>
        <mxCell id="5pXr0R31rmwVF_x6JBgt-14" value="&lt;div&gt;CodigoCarrera,CodigoMateria,&lt;/div&gt;&lt;div&gt;Modalidad,Horario&lt;/div&gt;" style="shape=trapezoid;perimeter=trapezoidPerimeter;whiteSpace=wrap;html=1;fixedSize=1;direction=west;fillColor=#dae8fc;strokeColor=#6c8ebf;" parent="5pXr0R31rmwVF_x6JBgt-6" vertex="1">
          <mxGeometry x="62.00000000000001" y="660" width="200" height="30" as="geometry" />
        </mxCell>
        <mxCell id="5gnvTc-YlHs9Nw9wisjp-30" value="" style="edgeStyle=orthogonalEdgeStyle;rounded=0;orthogonalLoop=1;jettySize=auto;html=1;fillColor=#dae8fc;strokeColor=#6c8ebf;" parent="5pXr0R31rmwVF_x6JBgt-6" target="5pXr0R31rmwVF_x6JBgt-12" edge="1">
          <mxGeometry relative="1" as="geometry">
            <mxPoint x="317" y="550" as="sourcePoint" />
          </mxGeometry>
        </mxCell>
        <mxCell id="kTfVB5gQmg0WQEh0IqgH-11" style="edgeStyle=orthogonalEdgeStyle;rounded=0;orthogonalLoop=1;jettySize=auto;html=1;exitX=0.5;exitY=1;exitDx=0;exitDy=0;endArrow=none;endFill=0;fillColor=#dae8fc;strokeColor=#6c8ebf;" edge="1" parent="5pXr0R31rmwVF_x6JBgt-6" source="5pXr0R31rmwVF_x6JBgt-11">
          <mxGeometry relative="1" as="geometry">
            <mxPoint x="320.01" y="301" as="targetPoint" />
          </mxGeometry>
        </mxCell>
        <mxCell id="5pXr0R31rmwVF_x6JBgt-11" value="LegajoAlumno" style="shape=trapezoid;perimeter=trapezoidPerimeter;whiteSpace=wrap;html=1;fixedSize=1;direction=west;fillColor=#dae8fc;strokeColor=#6c8ebf;" parent="5pXr0R31rmwVF_x6JBgt-6" vertex="1">
          <mxGeometry x="257" y="531" width="120" height="30" as="geometry" />
        </mxCell>
        <mxCell id="yonmYlfciaBzX_8r0v4c-0" style="edgeStyle=orthogonalEdgeStyle;rounded=0;orthogonalLoop=1;jettySize=auto;html=1;exitX=0.5;exitY=0;exitDx=0;exitDy=0;fillColor=#dae8fc;strokeColor=#6c8ebf;" parent="5pXr0R31rmwVF_x6JBgt-6" edge="1">
          <mxGeometry relative="1" as="geometry">
            <mxPoint x="317" y="550" as="sourcePoint" />
            <mxPoint x="317" y="550" as="targetPoint" />
          </mxGeometry>
        </mxCell>
        <mxCell id="5gnvTc-YlHs9Nw9wisjp-39" value="" style="edgeStyle=orthogonalEdgeStyle;rounded=0;orthogonalLoop=1;jettySize=auto;html=1;fillColor=#dae8fc;strokeColor=#6c8ebf;" parent="5pXr0R31rmwVF_x6JBgt-6" source="5gnvTc-YlHs9Nw9wisjp-15" target="5gnvTc-YlHs9Nw9wisjp-16" edge="1">
          <mxGeometry relative="1" as="geometry" />
        </mxCell>
        <mxCell id="5gnvTc-YlHs9Nw9wisjp-15" value="contadorCarrera&amp;nbsp;++" style="whiteSpace=wrap;html=1;fillColor=#dae8fc;strokeColor=#6c8ebf;" parent="5pXr0R31rmwVF_x6JBgt-6" vertex="1">
          <mxGeometry x="205" y="40" width="200" height="30" as="geometry" />
        </mxCell>
        <mxCell id="5gnvTc-YlHs9Nw9wisjp-20" style="edgeStyle=orthogonalEdgeStyle;rounded=0;orthogonalLoop=1;jettySize=auto;html=1;exitX=0;exitY=0.5;exitDx=0;exitDy=0;entryX=0.402;entryY=0.1;entryDx=0;entryDy=0;entryPerimeter=0;fillColor=#dae8fc;strokeColor=#6c8ebf;endArrow=none;endFill=0;" parent="5pXr0R31rmwVF_x6JBgt-6" source="5gnvTc-YlHs9Nw9wisjp-16" target="5gnvTc-YlHs9Nw9wisjp-19" edge="1">
          <mxGeometry relative="1" as="geometry" />
        </mxCell>
        <mxCell id="5gnvTc-YlHs9Nw9wisjp-21" style="edgeStyle=orthogonalEdgeStyle;rounded=0;orthogonalLoop=1;jettySize=auto;html=1;exitX=1;exitY=0.5;exitDx=0;exitDy=0;entryX=0.409;entryY=0.972;entryDx=0;entryDy=0;entryPerimeter=0;endArrow=none;endFill=0;fillColor=#dae8fc;strokeColor=#6c8ebf;" parent="5pXr0R31rmwVF_x6JBgt-6" source="5gnvTc-YlHs9Nw9wisjp-16" target="5gnvTc-YlHs9Nw9wisjp-19" edge="1">
          <mxGeometry relative="1" as="geometry">
            <Array as="points">
              <mxPoint x="385" y="124" />
              <mxPoint x="385" y="191" />
              <mxPoint x="147" y="191" />
            </Array>
          </mxGeometry>
        </mxCell>
        <mxCell id="5gnvTc-YlHs9Nw9wisjp-16" value="Modalidad == &#39;D&#39;" style="rhombus;whiteSpace=wrap;html=1;fillColor=#dae8fc;strokeColor=#6c8ebf;" parent="5pXr0R31rmwVF_x6JBgt-6" vertex="1">
          <mxGeometry x="244.92000000000002" y="84" width="120" height="80" as="geometry" />
        </mxCell>
        <mxCell id="5gnvTc-YlHs9Nw9wisjp-19" value="contadorCarrerasADistancias++" style="whiteSpace=wrap;html=1;fillColor=#dae8fc;strokeColor=#6c8ebf;" parent="5pXr0R31rmwVF_x6JBgt-6" vertex="1">
          <mxGeometry x="64.92000000000002" y="144" width="200" height="30" as="geometry" />
        </mxCell>
        <mxCell id="5gnvTc-YlHs9Nw9wisjp-40" value="" style="edgeStyle=orthogonalEdgeStyle;rounded=0;orthogonalLoop=1;jettySize=auto;html=1;fillColor=#dae8fc;strokeColor=#6c8ebf;" parent="5pXr0R31rmwVF_x6JBgt-6" edge="1">
          <mxGeometry relative="1" as="geometry">
            <mxPoint x="304.58" y="191" as="sourcePoint" />
            <mxPoint x="305.07" y="211" as="targetPoint" />
          </mxGeometry>
        </mxCell>
        <mxCell id="V2eRFCbEdA1scItEcbjX-22" value="horario" style="triangle;whiteSpace=wrap;html=1;direction=north;fillColor=#dae8fc;strokeColor=#6c8ebf;" parent="5pXr0R31rmwVF_x6JBgt-6" vertex="1">
          <mxGeometry x="4.92" y="212" width="600" height="19" as="geometry" />
        </mxCell>
        <mxCell id="KSVmQtY1M76giZMWFQWg-10" style="edgeStyle=orthogonalEdgeStyle;rounded=0;orthogonalLoop=1;jettySize=auto;html=1;exitX=0.5;exitY=1;exitDx=0;exitDy=0;entryX=0.5;entryY=0;entryDx=0;entryDy=0;endArrow=none;endFill=0;fillColor=#dae8fc;strokeColor=#6c8ebf;" parent="5pXr0R31rmwVF_x6JBgt-6" source="V2eRFCbEdA1scItEcbjX-24" target="V2eRFCbEdA1scItEcbjX-30" edge="1">
          <mxGeometry relative="1" as="geometry" />
        </mxCell>
        <mxCell id="V2eRFCbEdA1scItEcbjX-24" value="&#39;M&#39;" style="rounded=1;whiteSpace=wrap;html=1;fillColor=#dae8fc;strokeColor=#6c8ebf;" parent="5pXr0R31rmwVF_x6JBgt-6" vertex="1">
          <mxGeometry x="52" y="235" width="38" height="19" as="geometry" />
        </mxCell>
        <mxCell id="KSVmQtY1M76giZMWFQWg-12" style="edgeStyle=orthogonalEdgeStyle;rounded=0;orthogonalLoop=1;jettySize=auto;html=1;exitX=0.5;exitY=1;exitDx=0;exitDy=0;entryX=0.523;entryY=0;entryDx=0;entryDy=0;entryPerimeter=0;endArrow=none;endFill=0;fillColor=#dae8fc;strokeColor=#6c8ebf;" parent="5pXr0R31rmwVF_x6JBgt-6" source="V2eRFCbEdA1scItEcbjX-25" target="V2eRFCbEdA1scItEcbjX-33" edge="1">
          <mxGeometry relative="1" as="geometry" />
        </mxCell>
        <mxCell id="V2eRFCbEdA1scItEcbjX-25" value="&#39;T&#39;" style="rounded=1;whiteSpace=wrap;html=1;fillColor=#dae8fc;strokeColor=#6c8ebf;" parent="5pXr0R31rmwVF_x6JBgt-6" vertex="1">
          <mxGeometry x="286" y="235" width="38" height="19" as="geometry" />
        </mxCell>
        <mxCell id="V2eRFCbEdA1scItEcbjX-26" value="&#39;N&#39;" style="rounded=1;whiteSpace=wrap;html=1;fillColor=#dae8fc;strokeColor=#6c8ebf;" parent="5pXr0R31rmwVF_x6JBgt-6" vertex="1">
          <mxGeometry x="518.5" y="235" width="38" height="19" as="geometry" />
        </mxCell>
        <mxCell id="KSVmQtY1M76giZMWFQWg-33" style="edgeStyle=orthogonalEdgeStyle;rounded=0;orthogonalLoop=1;jettySize=auto;html=1;exitX=0.5;exitY=1;exitDx=0;exitDy=0;entryX=0.5;entryY=1;entryDx=0;entryDy=0;endArrow=none;endFill=0;fillColor=#dae8fc;strokeColor=#6c8ebf;" parent="5pXr0R31rmwVF_x6JBgt-6" source="V2eRFCbEdA1scItEcbjX-30" target="V2eRFCbEdA1scItEcbjX-33" edge="1">
          <mxGeometry relative="1" as="geometry" />
        </mxCell>
        <mxCell id="V2eRFCbEdA1scItEcbjX-30" value="&lt;font style=&quot;font-size: 10px;&quot;&gt;contadorTurnoManiana ++&lt;/font&gt;" style="whiteSpace=wrap;html=1;fillColor=#dae8fc;strokeColor=#6c8ebf;" parent="5pXr0R31rmwVF_x6JBgt-6" vertex="1">
          <mxGeometry x="8.5" y="267" width="125" height="14.5" as="geometry" />
        </mxCell>
        <mxCell id="V2eRFCbEdA1scItEcbjX-33" value="&lt;font style=&quot;font-size: 10px;&quot;&gt;contadorTurnoTarde ++&lt;/font&gt;" style="whiteSpace=wrap;html=1;fillColor=#dae8fc;strokeColor=#6c8ebf;" parent="5pXr0R31rmwVF_x6JBgt-6" vertex="1">
          <mxGeometry x="239.92" y="267" width="125" height="14.5" as="geometry" />
        </mxCell>
        <mxCell id="KSVmQtY1M76giZMWFQWg-34" style="edgeStyle=orthogonalEdgeStyle;rounded=0;orthogonalLoop=1;jettySize=auto;html=1;exitX=0.5;exitY=1;exitDx=0;exitDy=0;entryX=0.5;entryY=1;entryDx=0;entryDy=0;endArrow=none;endFill=0;fillColor=#dae8fc;strokeColor=#6c8ebf;" parent="5pXr0R31rmwVF_x6JBgt-6" source="V2eRFCbEdA1scItEcbjX-34" target="V2eRFCbEdA1scItEcbjX-33" edge="1">
          <mxGeometry relative="1" as="geometry" />
        </mxCell>
        <mxCell id="V2eRFCbEdA1scItEcbjX-34" value="&lt;font style=&quot;font-size: 10px;&quot;&gt;contadorTurnoNoche ++&lt;/font&gt;" style="whiteSpace=wrap;html=1;fillColor=#dae8fc;strokeColor=#6c8ebf;" parent="5pXr0R31rmwVF_x6JBgt-6" vertex="1">
          <mxGeometry x="475" y="267" width="125" height="14.5" as="geometry" />
        </mxCell>
        <mxCell id="KSVmQtY1M76giZMWFQWg-3" style="edgeStyle=orthogonalEdgeStyle;rounded=0;orthogonalLoop=1;jettySize=auto;html=1;exitX=0.5;exitY=1;exitDx=0;exitDy=0;entryX=0.44;entryY=0;entryDx=0;entryDy=0;entryPerimeter=0;fillColor=#dae8fc;strokeColor=#6c8ebf;" parent="5pXr0R31rmwVF_x6JBgt-4" edge="1">
          <mxGeometry relative="1" as="geometry">
            <mxPoint x="375" y="118" as="sourcePoint" />
            <mxPoint x="351.44000000000005" y="132" as="targetPoint" />
          </mxGeometry>
        </mxCell>
        <mxCell id="5gnvTc-YlHs9Nw9wisjp-2" value="contadorCarareasADistancia = 0" style="whiteSpace=wrap;html=1;fillColor=#dae8fc;strokeColor=#6c8ebf;" parent="5pXr0R31rmwVF_x6JBgt-4" vertex="1">
          <mxGeometry x="250" y="88" width="200" height="30" as="geometry" />
        </mxCell>
        <mxCell id="KSVmQtY1M76giZMWFQWg-4" style="edgeStyle=orthogonalEdgeStyle;rounded=0;orthogonalLoop=1;jettySize=auto;html=1;exitX=0.5;exitY=1;exitDx=0;exitDy=0;entryX=0.5;entryY=0;entryDx=0;entryDy=0;fillColor=#dae8fc;strokeColor=#6c8ebf;" parent="5pXr0R31rmwVF_x6JBgt-4" source="5gnvTc-YlHs9Nw9wisjp-14" target="5gnvTc-YlHs9Nw9wisjp-2" edge="1">
          <mxGeometry relative="1" as="geometry" />
        </mxCell>
        <mxCell id="5gnvTc-YlHs9Nw9wisjp-14" value="contadorCarrera= 0" style="whiteSpace=wrap;html=1;fillColor=#dae8fc;strokeColor=#6c8ebf;" parent="5pXr0R31rmwVF_x6JBgt-4" vertex="1">
          <mxGeometry x="250" y="40" width="200" height="30" as="geometry" />
        </mxCell>
        <mxCell id="5gnvTc-YlHs9Nw9wisjp-25" value="" style="edgeStyle=orthogonalEdgeStyle;rounded=0;orthogonalLoop=1;jettySize=auto;html=1;fillColor=#dae8fc;strokeColor=#6c8ebf;exitX=0;exitY=0.5;exitDx=0;exitDy=0;" parent="5pXr0R31rmwVF_x6JBgt-4" source="5gnvTc-YlHs9Nw9wisjp-23" target="5gnvTc-YlHs9Nw9wisjp-24" edge="1">
          <mxGeometry relative="1" as="geometry">
            <Array as="points">
              <mxPoint x="137" y="1311" />
            </Array>
          </mxGeometry>
        </mxCell>
        <mxCell id="5gnvTc-YlHs9Nw9wisjp-28" style="edgeStyle=orthogonalEdgeStyle;rounded=0;orthogonalLoop=1;jettySize=auto;html=1;exitX=1;exitY=0.5;exitDx=0;exitDy=0;entryX=0.5;entryY=1;entryDx=0;entryDy=0;endArrow=none;endFill=0;fillColor=#dae8fc;strokeColor=#6c8ebf;" parent="5pXr0R31rmwVF_x6JBgt-4" source="5gnvTc-YlHs9Nw9wisjp-23" target="5gnvTc-YlHs9Nw9wisjp-26" edge="1">
          <mxGeometry relative="1" as="geometry">
            <Array as="points">
              <mxPoint x="477" y="1312" />
              <mxPoint x="477" y="1431" />
              <mxPoint x="137" y="1431" />
            </Array>
          </mxGeometry>
        </mxCell>
        <mxCell id="kTfVB5gQmg0WQEh0IqgH-30" style="edgeStyle=orthogonalEdgeStyle;shape=connector;rounded=0;orthogonalLoop=1;jettySize=auto;html=1;exitX=0.5;exitY=0;exitDx=0;exitDy=0;labelBackgroundColor=default;strokeColor=#b85450;fontFamily=Helvetica;fontSize=11;fontColor=default;endArrow=none;endFill=0;fillColor=#f8cecc;" edge="1" parent="5pXr0R31rmwVF_x6JBgt-4" source="5gnvTc-YlHs9Nw9wisjp-23">
          <mxGeometry relative="1" as="geometry">
            <mxPoint x="370.01" y="1240" as="targetPoint" />
          </mxGeometry>
        </mxCell>
        <mxCell id="5gnvTc-YlHs9Nw9wisjp-23" value="contadorCarrerasADistancia &amp;gt; maximasInscripcionesADistancia&amp;nbsp;" style="rhombus;whiteSpace=wrap;html=1;fillColor=#dae8fc;strokeColor=#6c8ebf;" parent="5pXr0R31rmwVF_x6JBgt-4" vertex="1">
          <mxGeometry x="230" y="1272" width="228" height="80" as="geometry" />
        </mxCell>
        <mxCell id="5gnvTc-YlHs9Nw9wisjp-27" value="" style="edgeStyle=orthogonalEdgeStyle;rounded=0;orthogonalLoop=1;jettySize=auto;html=1;fillColor=#dae8fc;strokeColor=#6c8ebf;" parent="5pXr0R31rmwVF_x6JBgt-4" source="5gnvTc-YlHs9Nw9wisjp-24" target="5gnvTc-YlHs9Nw9wisjp-26" edge="1">
          <mxGeometry relative="1" as="geometry" />
        </mxCell>
        <mxCell id="5gnvTc-YlHs9Nw9wisjp-24" value="maximasInscripcionesADistancia&amp;nbsp; = contadorCarrerasADistancia&amp;nbsp;" style="whiteSpace=wrap;html=1;fillColor=#dae8fc;strokeColor=#6c8ebf;" parent="5pXr0R31rmwVF_x6JBgt-4" vertex="1">
          <mxGeometry x="42" y="1328" width="190" height="40" as="geometry" />
        </mxCell>
        <mxCell id="5gnvTc-YlHs9Nw9wisjp-26" value="carrerasMasInscripcionesADistancia =&amp;nbsp;CodigoActualCarrera" style="whiteSpace=wrap;html=1;fillColor=#dae8fc;strokeColor=#6c8ebf;" parent="5pXr0R31rmwVF_x6JBgt-4" vertex="1">
          <mxGeometry x="42" y="1381" width="190" height="40" as="geometry" />
        </mxCell>
        <mxCell id="KSVmQtY1M76giZMWFQWg-29" style="edgeStyle=orthogonalEdgeStyle;rounded=0;orthogonalLoop=1;jettySize=auto;html=1;endArrow=none;endFill=0;exitX=0.5;exitY=1;exitDx=0;exitDy=0;entryX=0.5;entryY=0;entryDx=0;entryDy=0;fillColor=#dae8fc;strokeColor=#6c8ebf;" parent="5pXr0R31rmwVF_x6JBgt-4" source="V2eRFCbEdA1scItEcbjX-35" target="V2eRFCbEdA1scItEcbjX-51" edge="1">
          <mxGeometry relative="1" as="geometry">
            <mxPoint x="351" y="1655" as="targetPoint" />
            <mxPoint x="351.01" y="1645" as="sourcePoint" />
          </mxGeometry>
        </mxCell>
        <mxCell id="V2eRFCbEdA1scItEcbjX-35" value="contadorCarrera&amp;nbsp;" style="shape=trapezoid;perimeter=trapezoidPerimeter;whiteSpace=wrap;html=1;fixedSize=1;fillColor=#dae8fc;strokeColor=#6c8ebf;" parent="5pXr0R31rmwVF_x6JBgt-4" vertex="1">
          <mxGeometry x="290" y="1611" width="120" height="30" as="geometry" />
        </mxCell>
        <mxCell id="KSVmQtY1M76giZMWFQWg-21" style="edgeStyle=orthogonalEdgeStyle;rounded=0;orthogonalLoop=1;jettySize=auto;html=1;exitX=0.5;exitY=0;exitDx=0;exitDy=0;endArrow=none;endFill=0;fillColor=#dae8fc;strokeColor=#6c8ebf;" parent="5pXr0R31rmwVF_x6JBgt-4" source="V2eRFCbEdA1scItEcbjX-47" edge="1">
          <mxGeometry relative="1" as="geometry">
            <mxPoint x="351.8433333333335" y="1431" as="targetPoint" />
          </mxGeometry>
        </mxCell>
        <mxCell id="KSVmQtY1M76giZMWFQWg-22" style="edgeStyle=orthogonalEdgeStyle;rounded=0;orthogonalLoop=1;jettySize=auto;html=1;exitX=0.5;exitY=1;exitDx=0;exitDy=0;entryX=0.5;entryY=0;entryDx=0;entryDy=0;endArrow=none;endFill=0;fillColor=#dae8fc;strokeColor=#6c8ebf;" parent="5pXr0R31rmwVF_x6JBgt-4" source="V2eRFCbEdA1scItEcbjX-47" target="KSVmQtY1M76giZMWFQWg-19" edge="1">
          <mxGeometry relative="1" as="geometry" />
        </mxCell>
        <mxCell id="V2eRFCbEdA1scItEcbjX-47" value="&lt;font style=&quot;font-size: 10px;&quot;&gt;&lt;font style=&quot;&quot;&gt;porcentajeTurnoManiana = contadorTurnoManiana * 100 / (&lt;/font&gt;contadorTurnoManiana +&amp;nbsp;contadorTurnoTarde +&amp;nbsp;contadorTurnoNoche)&lt;/font&gt;" style="whiteSpace=wrap;html=1;fillColor=#dae8fc;strokeColor=#6c8ebf;" parent="5pXr0R31rmwVF_x6JBgt-4" vertex="1">
          <mxGeometry x="42" y="1445" width="620" height="20" as="geometry" />
        </mxCell>
        <mxCell id="V2eRFCbEdA1scItEcbjX-51" value="porcentajeTurnoManiana, porcentajeTurnoTarde, porcentajeTurnoNoche" style="shape=trapezoid;perimeter=trapezoidPerimeter;whiteSpace=wrap;html=1;fixedSize=1;fillColor=#dae8fc;strokeColor=#6c8ebf;" parent="5pXr0R31rmwVF_x6JBgt-4" vertex="1">
          <mxGeometry x="142.75" y="1661" width="414.5" height="30" as="geometry" />
        </mxCell>
        <mxCell id="5pXr0R31rmwVF_x6JBgt-9" value="CodigoActualCarrera=CodigoCarrera" style="whiteSpace=wrap;html=1;fillColor=#dae8fc;strokeColor=#6c8ebf;" parent="5pXr0R31rmwVF_x6JBgt-4" vertex="1">
          <mxGeometry x="238.75" y="183" width="222.5" height="20" as="geometry" />
        </mxCell>
        <mxCell id="KSVmQtY1M76giZMWFQWg-18" style="edgeStyle=orthogonalEdgeStyle;rounded=0;orthogonalLoop=1;jettySize=auto;html=1;exitX=0.5;exitY=1;exitDx=0;exitDy=0;fillColor=#dae8fc;strokeColor=#6c8ebf;" parent="5pXr0R31rmwVF_x6JBgt-4" edge="1">
          <mxGeometry relative="1" as="geometry">
            <mxPoint x="351.17666666666673" y="180" as="targetPoint" />
            <mxPoint x="351.0049999999999" y="152" as="sourcePoint" />
          </mxGeometry>
        </mxCell>
        <mxCell id="KSVmQtY1M76giZMWFQWg-2" value="&lt;font style=&quot;font-size: 11px;&quot;&gt;contadorTurnoManiana = 0, contadorTurnoTarde = 0, contadorTurnoNoche = 0&lt;/font&gt;" style="whiteSpace=wrap;html=1;fillColor=#dae8fc;strokeColor=#6c8ebf;" parent="5pXr0R31rmwVF_x6JBgt-4" vertex="1">
          <mxGeometry x="153.63" y="132" width="392.75" height="20" as="geometry" />
        </mxCell>
        <mxCell id="KSVmQtY1M76giZMWFQWg-23" style="edgeStyle=orthogonalEdgeStyle;rounded=0;orthogonalLoop=1;jettySize=auto;html=1;exitX=0.5;exitY=1;exitDx=0;exitDy=0;entryX=0.5;entryY=0;entryDx=0;entryDy=0;endArrow=none;endFill=0;fillColor=#dae8fc;strokeColor=#6c8ebf;" parent="5pXr0R31rmwVF_x6JBgt-4" source="KSVmQtY1M76giZMWFQWg-19" target="KSVmQtY1M76giZMWFQWg-20" edge="1">
          <mxGeometry relative="1" as="geometry" />
        </mxCell>
        <mxCell id="KSVmQtY1M76giZMWFQWg-19" value="&lt;font style=&quot;font-size: 10px;&quot;&gt;&lt;font style=&quot;&quot;&gt;porcentajeTurnoTarde = contadorTurnoTarde * 100 / (&lt;/font&gt;contadorTurnoManiana +&amp;nbsp;contadorTurnoTarde +&amp;nbsp;contadorTurnoNoche)&lt;/font&gt;" style="whiteSpace=wrap;html=1;fillColor=#dae8fc;strokeColor=#6c8ebf;" parent="5pXr0R31rmwVF_x6JBgt-4" vertex="1">
          <mxGeometry x="42" y="1477" width="620" height="20" as="geometry" />
        </mxCell>
        <mxCell id="KSVmQtY1M76giZMWFQWg-26" style="edgeStyle=orthogonalEdgeStyle;rounded=0;orthogonalLoop=1;jettySize=auto;html=1;exitX=0.5;exitY=1;exitDx=0;exitDy=0;endArrow=none;endFill=0;fillColor=#dae8fc;strokeColor=#6c8ebf;" parent="5pXr0R31rmwVF_x6JBgt-4" source="KSVmQtY1M76giZMWFQWg-20" edge="1">
          <mxGeometry relative="1" as="geometry">
            <mxPoint x="351.7341379310344" y="1611" as="targetPoint" />
          </mxGeometry>
        </mxCell>
        <mxCell id="KSVmQtY1M76giZMWFQWg-20" value="&lt;font style=&quot;font-size: 10px;&quot;&gt;&lt;font style=&quot;&quot;&gt;porcentajeTurnoNoche = contadorTurnoNoche * 100 / (&lt;/font&gt;contadorTurnoManiana +&amp;nbsp;contadorTurnoTarde +&amp;nbsp;contadorTurnoNoche)&lt;/font&gt;" style="whiteSpace=wrap;html=1;fillColor=#dae8fc;strokeColor=#6c8ebf;" parent="5pXr0R31rmwVF_x6JBgt-4" vertex="1">
          <mxGeometry x="42" y="1508" width="620" height="20" as="geometry" />
        </mxCell>
        <mxCell id="kTfVB5gQmg0WQEh0IqgH-20" style="edgeStyle=orthogonalEdgeStyle;rounded=0;orthogonalLoop=1;jettySize=auto;html=1;exitX=0;exitY=0.5;exitDx=0;exitDy=0;entryX=0.5;entryY=0;entryDx=0;entryDy=0;endArrow=none;endFill=0;fillColor=#f8cecc;strokeColor=#b85450;" edge="1" parent="5pXr0R31rmwVF_x6JBgt-4" source="kTfVB5gQmg0WQEh0IqgH-12" target="kTfVB5gQmg0WQEh0IqgH-13">
          <mxGeometry relative="1" as="geometry" />
        </mxCell>
        <mxCell id="kTfVB5gQmg0WQEh0IqgH-23" style="edgeStyle=orthogonalEdgeStyle;shape=connector;rounded=0;orthogonalLoop=1;jettySize=auto;html=1;exitX=1;exitY=0.5;exitDx=0;exitDy=0;entryX=0.5;entryY=0;entryDx=0;entryDy=0;labelBackgroundColor=default;strokeColor=#b85450;fontFamily=Helvetica;fontSize=11;fontColor=default;endArrow=none;endFill=0;fillColor=#f8cecc;" edge="1" parent="5pXr0R31rmwVF_x6JBgt-4" source="kTfVB5gQmg0WQEh0IqgH-12" target="kTfVB5gQmg0WQEh0IqgH-16">
          <mxGeometry relative="1" as="geometry" />
        </mxCell>
        <mxCell id="kTfVB5gQmg0WQEh0IqgH-12" value="&lt;div&gt;BanderaMinimasInscripciones == 0&lt;/div&gt;" style="rhombus;whiteSpace=wrap;html=1;fillColor=#f8cecc;strokeColor=#b85450;" vertex="1" parent="5pXr0R31rmwVF_x6JBgt-4">
          <mxGeometry x="232" y="940" width="210" height="110" as="geometry" />
        </mxCell>
        <mxCell id="kTfVB5gQmg0WQEh0IqgH-15" value="BanderaMinimasInscripciones=1" style="whiteSpace=wrap;html=1;fillColor=#f8cecc;strokeColor=#b85450;" vertex="1" parent="5pXr0R31rmwVF_x6JBgt-4">
          <mxGeometry x="81" y="1109" width="180" height="30" as="geometry" />
        </mxCell>
        <mxCell id="kTfVB5gQmg0WQEh0IqgH-19" style="edgeStyle=orthogonalEdgeStyle;rounded=0;orthogonalLoop=1;jettySize=auto;html=1;exitX=0;exitY=0.5;exitDx=0;exitDy=0;entryX=0.5;entryY=0;entryDx=0;entryDy=0;endArrow=none;endFill=0;fillColor=#f8cecc;strokeColor=#b85450;" edge="1" parent="5pXr0R31rmwVF_x6JBgt-4" source="kTfVB5gQmg0WQEh0IqgH-16">
          <mxGeometry relative="1" as="geometry">
            <mxPoint x="400.01" y="1120" as="targetPoint" />
          </mxGeometry>
        </mxCell>
        <mxCell id="kTfVB5gQmg0WQEh0IqgH-25" style="edgeStyle=orthogonalEdgeStyle;shape=connector;rounded=0;orthogonalLoop=1;jettySize=auto;html=1;exitX=1;exitY=0.5;exitDx=0;exitDy=0;entryX=0.5;entryY=1;entryDx=0;entryDy=0;labelBackgroundColor=default;strokeColor=#b85450;fontFamily=Helvetica;fontSize=11;fontColor=default;endArrow=none;endFill=0;fillColor=#f8cecc;" edge="1" parent="5pXr0R31rmwVF_x6JBgt-4" source="kTfVB5gQmg0WQEh0IqgH-16">
          <mxGeometry relative="1" as="geometry">
            <mxPoint x="400.01" y="1200" as="targetPoint" />
            <Array as="points">
              <mxPoint x="688" y="1084" />
              <mxPoint x="688" y="1220" />
              <mxPoint x="400" y="1220" />
            </Array>
          </mxGeometry>
        </mxCell>
        <mxCell id="kTfVB5gQmg0WQEh0IqgH-16" value="Inscripciones&amp;lt;MinimasInscripciones" style="rhombus;whiteSpace=wrap;html=1;fillColor=#f8cecc;strokeColor=#b85450;" vertex="1" parent="5pXr0R31rmwVF_x6JBgt-4">
          <mxGeometry x="458" y="1029" width="210" height="110" as="geometry" />
        </mxCell>
        <mxCell id="kTfVB5gQmg0WQEh0IqgH-24" style="edgeStyle=orthogonalEdgeStyle;shape=connector;rounded=0;orthogonalLoop=1;jettySize=auto;html=1;exitX=0.5;exitY=1;exitDx=0;exitDy=0;entryX=0.5;entryY=0;entryDx=0;entryDy=0;labelBackgroundColor=default;strokeColor=#b85450;fontFamily=Helvetica;fontSize=11;fontColor=default;endArrow=none;endFill=0;fillColor=#f8cecc;" edge="1" parent="5pXr0R31rmwVF_x6JBgt-4">
          <mxGeometry relative="1" as="geometry">
            <mxPoint x="400.01" y="1150" as="sourcePoint" />
            <mxPoint x="400.01" y="1170" as="targetPoint" />
          </mxGeometry>
        </mxCell>
        <mxCell id="kTfVB5gQmg0WQEh0IqgH-21" style="edgeStyle=orthogonalEdgeStyle;rounded=0;orthogonalLoop=1;jettySize=auto;html=1;exitX=0.5;exitY=1;exitDx=0;exitDy=0;entryX=0.5;entryY=0;entryDx=0;entryDy=0;endArrow=none;endFill=0;fillColor=#f8cecc;strokeColor=#b85450;" edge="1" parent="5pXr0R31rmwVF_x6JBgt-4" source="kTfVB5gQmg0WQEh0IqgH-13" target="kTfVB5gQmg0WQEh0IqgH-18">
          <mxGeometry relative="1" as="geometry" />
        </mxCell>
        <mxCell id="kTfVB5gQmg0WQEh0IqgH-13" value="MinimasInscripciones=Inscripciones" style="whiteSpace=wrap;html=1;fillColor=#f8cecc;strokeColor=#b85450;" vertex="1" parent="5pXr0R31rmwVF_x6JBgt-4">
          <mxGeometry x="72" y="1029" width="198" height="30" as="geometry" />
        </mxCell>
        <mxCell id="kTfVB5gQmg0WQEh0IqgH-22" style="edgeStyle=orthogonalEdgeStyle;rounded=0;orthogonalLoop=1;jettySize=auto;html=1;exitX=0.5;exitY=1;exitDx=0;exitDy=0;entryX=0.5;entryY=0;entryDx=0;entryDy=0;endArrow=none;endFill=0;fillColor=#f8cecc;strokeColor=#b85450;" edge="1" parent="5pXr0R31rmwVF_x6JBgt-4" source="kTfVB5gQmg0WQEh0IqgH-18" target="kTfVB5gQmg0WQEh0IqgH-15">
          <mxGeometry relative="1" as="geometry" />
        </mxCell>
        <mxCell id="kTfVB5gQmg0WQEh0IqgH-18" value="&lt;div&gt;CarreraMenosInscripciones=CodigoActualCarrera&lt;/div&gt;" style="whiteSpace=wrap;html=1;fillColor=#f8cecc;strokeColor=#b85450;" vertex="1" parent="5pXr0R31rmwVF_x6JBgt-4">
          <mxGeometry x="31" y="1069" width="280" height="30" as="geometry" />
        </mxCell>
        <mxCell id="kTfVB5gQmg0WQEh0IqgH-31" value="MinimasInscripciones=Inscripciones" style="whiteSpace=wrap;html=1;fillColor=#f8cecc;strokeColor=#b85450;" vertex="1" parent="5pXr0R31rmwVF_x6JBgt-4">
          <mxGeometry x="311" y="1120" width="198" height="30" as="geometry" />
        </mxCell>
        <mxCell id="kTfVB5gQmg0WQEh0IqgH-32" value="&lt;div&gt;CarreraMenosInscripciones=CodigoActualCarrera&lt;/div&gt;" style="whiteSpace=wrap;html=1;fillColor=#f8cecc;strokeColor=#b85450;" vertex="1" parent="5pXr0R31rmwVF_x6JBgt-4">
          <mxGeometry x="260.01" y="1170" width="280" height="30" as="geometry" />
        </mxCell>
        <mxCell id="kTfVB5gQmg0WQEh0IqgH-4" style="edgeStyle=orthogonalEdgeStyle;rounded=0;orthogonalLoop=1;jettySize=auto;html=1;exitX=0.5;exitY=1;exitDx=0;exitDy=0;entryX=0.583;entryY=0.933;entryDx=0;entryDy=0;entryPerimeter=0;" edge="1" parent="WIyWlLk6GJQsqaUBKTNV-1" source="5gnvTc-YlHs9Nw9wisjp-0" target="kTfVB5gQmg0WQEh0IqgH-0">
          <mxGeometry relative="1" as="geometry" />
        </mxCell>
        <mxCell id="5gnvTc-YlHs9Nw9wisjp-0" value="maximasInscripcionesADistancia = 0" style="whiteSpace=wrap;html=1;fillColor=#dae8fc;strokeColor=#6c8ebf;" parent="WIyWlLk6GJQsqaUBKTNV-1" vertex="1">
          <mxGeometry x="278.12" y="63" width="203.75" height="30" as="geometry" />
        </mxCell>
        <mxCell id="KSVmQtY1M76giZMWFQWg-32" style="edgeStyle=orthogonalEdgeStyle;rounded=0;orthogonalLoop=1;jettySize=auto;html=1;exitX=0.5;exitY=1;exitDx=0;exitDy=0;entryX=0.5;entryY=0;entryDx=0;entryDy=0;endArrow=none;endFill=0;fillColor=#dae8fc;strokeColor=#6c8ebf;" parent="WIyWlLk6GJQsqaUBKTNV-1" source="kTfVB5gQmg0WQEh0IqgH-33" target="5gnvTc-YlHs9Nw9wisjp-46" edge="1">
          <mxGeometry relative="1" as="geometry" />
        </mxCell>
        <mxCell id="5gnvTc-YlHs9Nw9wisjp-29" value="carrerasMasInscripcionesADistancia&amp;nbsp;" style="shape=trapezoid;perimeter=trapezoidPerimeter;whiteSpace=wrap;html=1;fixedSize=1;fillColor=#dae8fc;strokeColor=#6c8ebf;" parent="WIyWlLk6GJQsqaUBKTNV-1" vertex="1">
          <mxGeometry x="261.87" y="1870" width="220" height="30" as="geometry" />
        </mxCell>
        <mxCell id="5gnvTc-YlHs9Nw9wisjp-46" value="F" style="ellipse;whiteSpace=wrap;html=1;fillColor=#dae8fc;strokeColor=#6c8ebf;" parent="WIyWlLk6GJQsqaUBKTNV-1" vertex="1">
          <mxGeometry x="348.12" y="2010" width="47.5" height="40" as="geometry" />
        </mxCell>
        <mxCell id="kTfVB5gQmg0WQEh0IqgH-7" style="edgeStyle=orthogonalEdgeStyle;rounded=0;orthogonalLoop=1;jettySize=auto;html=1;exitX=0.5;exitY=1;exitDx=0;exitDy=0;entryX=0.5;entryY=0;entryDx=0;entryDy=0;entryPerimeter=0;" edge="1" parent="WIyWlLk6GJQsqaUBKTNV-1" source="kTfVB5gQmg0WQEh0IqgH-0" target="5pXr0R31rmwVF_x6JBgt-4">
          <mxGeometry relative="1" as="geometry" />
        </mxCell>
        <mxCell id="kTfVB5gQmg0WQEh0IqgH-0" value="&lt;div&gt;BanderaMinimasInscripciones = 0&lt;/div&gt;" style="whiteSpace=wrap;html=1;fillColor=#f8cecc;strokeColor=#b85450;" vertex="1" parent="WIyWlLk6GJQsqaUBKTNV-1">
          <mxGeometry x="278.13" y="102" width="203.75" height="30" as="geometry" />
        </mxCell>
        <mxCell id="kTfVB5gQmg0WQEh0IqgH-34" value="" style="edgeStyle=orthogonalEdgeStyle;rounded=0;orthogonalLoop=1;jettySize=auto;html=1;exitX=0.5;exitY=1;exitDx=0;exitDy=0;entryX=0.5;entryY=0;entryDx=0;entryDy=0;endArrow=none;endFill=0;fillColor=#dae8fc;strokeColor=#6c8ebf;" edge="1" parent="WIyWlLk6GJQsqaUBKTNV-1" source="5gnvTc-YlHs9Nw9wisjp-29" target="kTfVB5gQmg0WQEh0IqgH-33">
          <mxGeometry relative="1" as="geometry">
            <mxPoint x="372" y="1900" as="sourcePoint" />
            <mxPoint x="372" y="2010" as="targetPoint" />
          </mxGeometry>
        </mxCell>
        <mxCell id="kTfVB5gQmg0WQEh0IqgH-33" value="CarreaMenosInscripciones" style="shape=trapezoid;perimeter=trapezoidPerimeter;whiteSpace=wrap;html=1;fixedSize=1;strokeColor=#b85450;fontFamily=Helvetica;fontSize=11;startSize=20;fillColor=#f8cecc;" vertex="1" parent="WIyWlLk6GJQsqaUBKTNV-1">
          <mxGeometry x="288.87" y="1910" width="166" height="30" as="geometry" />
        </mxCell>
      </root>
    </mxGraphModel>
  </diagram>
</mxfile>
